{"title":"Repo.Men.UNRATED.2010.1080p.BluRay.DTS.x264-LTT","uid":5700272,"size":7739817128,"categoryP":"video","categoryS":"hd___movies","magnet":"?xt=urn:btih:068d9746253b9e026c8428ef16eb63003fdd21b7&amp;dn=Repo.Men.UNRATED.2010.1080p.BluRay.DTS.x264-LTT&amp;tr=udp%3A%2F%2Ftracker.openbittorrent.com%3A80&amp;tr=udp%3A%2F%2Fopen.demonii.com%3A1337&amp;tr=udp%3A%2F%2Ftracker.coppersurfer.tk%3A6969&amp;tr=udp%3A%2F%2Fexodus.desync.com%3A6969","seeders":0,"leechers":1,"uploader":null,"files":2,"time":1279476469,"description":"Repo.Men.UNRATED.1080p.BluRay.x264-LTT.mkv\n******************************************\n\nTiTLE......  Repo Men\nYEAR.......  2010\nGENRE......  Action | Sci-Fi | Thriller\niMDB URL... &lt;a href=&quot; http://www.imdb.com/title/tt1053424/&quot; rel=&quot;nofollow&quot; target=&quot;_NEW&quot;&gt; http://www.imdb.com/title/tt1053424/&lt;/a&gt;\n*************************************************\n\nVideo\nDuration                         : 1h 59mn\nOverall bit rate                 : 8 628 Kbps\nWidth                            : 1 920 pixels\nHeight                           : 816 pixels\nDisplay aspect ratio             : 2.35:1\nFrame rate                       : 23.976 fps\nStream size                      : 5.80 GiB (80%)\n\nAudio\nFormat                           : DTS\nFormat/Info                      : Digital Theater Systems\nBit rate                         : 1 510 Kbps\nChannel(s)                       : 6 channels\nChannel positions                : Front: L C R, Surround: L R, LFE\nSampling rate                    : 48.0 KHz\nResolution                       : 24 bits\nStream size                      : 1.26 GiB (17%)\nLanguage                         : English\n\nSubtitles: English, Dutch, French\n*********************************\n\n\n","torrent":{"xt":"urn:btih:068d9746253b9e026c8428ef16eb63003fdd21b7","amp;dn":"Repo.Men.UNRATED.2010.1080p.BluRay.DTS.x264-LTT","amp;tr":["udp%3A%2F%2Ftracker.openbittorrent.com%3A80","udp%3A%2F%2Fopen.demonii.com%3A1337","udp%3A%2F%2Ftracker.coppersurfer.tk%3A6969","udp%3A%2F%2Fexodus.desync.com%3A6969"],"infoHash":"068d9746253b9e026c8428ef16eb63003fdd21b7","infoHashBuffer":{"type":"Buffer","data":[6,141,151,70,37,59,158,2,108,132,40,239,22,235,99,0,63,221,33,183]},"announce":[],"urlList":[]}}